<svg xmlns="http://www.w3.org/2000/svg" viewBox="0 0 1341.12 301.7"><defs><style>.cls-1,.cls-3{fill:#f14c21;}.cls-2,.cls-5{fill:#fff;}.cls-3{font-size:265.81px;font-family:Satoshi-Light, Satoshi;font-weight:300;letter-spacing:0.02em;}.cls-4,.cls-5{letter-spacing:0.05em;}.cls-5{font-family:Satoshi-Bold, Satoshi;font-weight:700;}</style></defs><g id="Layer_2" data-name="Layer 2"><g id="Layer_1-2" data-name="Layer 1"><path class="cls-1" d="M102.69,133a19.78,19.78,0,0,1-2.44-3.82v-.07l-.16-.31-.15-.31-.07-.07-.16-.38V128a20.39,20.39,0,0,1-1.53-7.25l-.07-.08v-1.14l.07-.15a20.39,20.39,0,0,1,1.53-7.25h0l.16-.38.07-.16.15-.3.16-.3v-.08a22.48,22.48,0,0,1,2.44-3.81l76.2-99a20.79,20.79,0,0,1,32.9,25.41L145.14,120l66.65,86.52A20.79,20.79,0,0,1,178.89,232Z"/><path class="cls-2" d="M54.44,153.51h0v-.07a19.63,19.63,0,0,1,5.11-3.67v-.07l.46-.15v-.08l.38-.15.31-.15h.07l.39-.16.07-.08a21.61,21.61,0,0,1,7.25-1.52h1.38a21.18,21.18,0,0,1,7.71,1.76h.08l.3.15.23.15.15.08.39.15.07.07a19.3,19.3,0,0,1,5,3.67v.07h0a15,15,0,0,1,2.06,2.37l32.22,41.81A20.76,20.76,0,0,1,85.21,223l-16-20.84L53.14,223a20.77,20.77,0,0,1-32.91-25.34l32.14-41.81a15.63,15.63,0,0,1,2.07-2.37Z"/><path class="cls-2" d="M43.9,116A20.83,20.83,0,1,1,5.11,131.16a74.49,74.49,0,0,1-3.74-13.28A71.51,71.51,0,0,1,0,104.14,73.75,73.75,0,0,1,74,30.28v-.07a75.4,75.4,0,0,1,14.43,1.37,79.74,79.74,0,0,1,14,4.27A20.82,20.82,0,0,1,86.43,74.31a26.35,26.35,0,0,0-6-1.83A28.57,28.57,0,0,0,74,71.87v-.08a32.44,32.44,0,0,0-32.29,32.35,37.69,37.69,0,0,0,.53,6.11A32.56,32.56,0,0,0,43.9,116Z"/><text class="cls-3" transform="translate(346.73 236.84)">K<tspan class="cls-4" x="162.41" y="0">os</tspan><tspan class="cls-5" x="448.95" y="0">ERP</tspan></text></g></g></svg>